# MagicaVoxel @ Ephtracy

# group
o 

# material
mtllib ceiling.mtl
usemtl palette

# normals
vn -1 0 0
vn 1 0 0
vn 0 0 1
vn 0 0 -1
vn 0 -1 0
vn 0 1 0

# texcoords
vt 0.662109 0.5
vt 0.705078 0.5
vt 0.939453 0.5

# verts
v 0 0.5 0
v 0 0.5 -0.8
v 0 0.6 0
v 0 0.6 -0.8
v 0.1 0.4 -0.2
v 0.1 0.4 -0.3
v 0.1 0.4 -0.6
v 0.1 0.4 -0.7
v 0.1 0.5 -0.2
v 0.1 0.5 -0.3
v 0.1 0.5 -0.6
v 0.1 0.5 -0.7
v 0.2 0.4 -0.1
v 0.2 0.4 -0.2
v 0.2 0.5 -0.1
v 0.2 0.5 -0.2
v 0.6 0.4 -0.6
v 0.6 0.4 -0.7
v 0.6 0.5 -0.6
v 0.6 0.5 -0.7
v 0.7 0.4 -0.1
v 0.7 0.4 -0.3
v 0.7 0.4 -0.6
v 0.7 0.5 -0.1
v 0.7 0.5 -0.3
v 0.7 0.5 -0.6
v 0.8 0.5 0
v 0.8 0.5 -0.8
v 0.8 0.6 0
v 0.8 0.6 -0.8
v 0 0.5 0
v 0 0.6 0
v 0.8 0.5 0
v 0.8 0.6 0
v 0.2 0.4 -0.1
v 0.2 0.5 -0.1
v 0.3 0.4 -0.1
v 0.3 0.5 -0.1
v 0.5 0.4 -0.1
v 0.5 0.5 -0.1
v 0.7 0.4 -0.1
v 0.7 0.5 -0.1
v 0.1 0.4 -0.2
v 0.1 0.5 -0.2
v 0.2 0.4 -0.2
v 0.2 0.5 -0.2
v 0.6 0.4 -0.6
v 0.6 0.5 -0.6
v 0.7 0.4 -0.6
v 0.7 0.5 -0.6
v 0.1 0.4 -0.7
v 0.1 0.5 -0.7
v 0.2 0.4 -0.7
v 0.2 0.5 -0.7
v 0.3 0.4 -0.7
v 0.3 0.5 -0.7
v 0.5 0.4 -0.7
v 0.5 0.5 -0.7
v 0.6 0.4 -0.7
v 0.6 0.5 -0.7
v 0 0.5 -0.8
v 0 0.6 -0.8
v 0.1 0.5 -0.8
v 0.1 0.6 -0.8
v 0.3 0.5 -0.8
v 0.3 0.6 -0.8
v 0.5 0.5 -0.8
v 0.5 0.6 -0.8
v 0.7 0.5 -0.8
v 0.7 0.6 -0.8
v 0.8 0.5 -0.8
v 0.8 0.6 -0.8
v 0.2 0.4 -0.1
v 0.3 0.4 -0.1
v 0.5 0.4 -0.1
v 0.7 0.4 -0.1
v 0.1 0.4 -0.2
v 0.2 0.4 -0.2
v 0.3 0.4 -0.2
v 0.5 0.4 -0.2
v 0.6 0.4 -0.2
v 0.1 0.4 -0.3
v 0.2 0.4 -0.3
v 0.6 0.4 -0.3
v 0.7 0.4 -0.3
v 0.2 0.4 -0.4
v 0.6 0.4 -0.4
v 0.2 0.4 -0.5
v 0.6 0.4 -0.5
v 0.1 0.4 -0.6
v 0.2 0.4 -0.6
v 0.3 0.4 -0.6
v 0.5 0.4 -0.6
v 0.6 0.4 -0.6
v 0.7 0.4 -0.6
v 0.1 0.4 -0.7
v 0.2 0.4 -0.7
v 0.3 0.4 -0.7
v 0.5 0.4 -0.7
v 0.6 0.4 -0.7
v 0 0.5 0
v 0.8 0.5 0
v 0.2 0.5 -0.1
v 0.3 0.5 -0.1
v 0.5 0.5 -0.1
v 0.7 0.5 -0.1
v 0.1 0.5 -0.2
v 0.2 0.5 -0.2
v 0.1 0.5 -0.3
v 0.7 0.5 -0.3
v 0.1 0.5 -0.6
v 0.6 0.5 -0.6
v 0.7 0.5 -0.6
v 0.1 0.5 -0.7
v 0.2 0.5 -0.7
v 0.3 0.5 -0.7
v 0.5 0.5 -0.7
v 0.6 0.5 -0.7
v 0 0.5 -0.8
v 0.1 0.5 -0.8
v 0.3 0.5 -0.8
v 0.5 0.5 -0.8
v 0.7 0.5 -0.8
v 0.8 0.5 -0.8
v 0 0.6 0
v 0.8 0.6 0
v 0.1 0.6 -0.3
v 0.7 0.6 -0.3
v 0.3 0.6 -0.7
v 0.5 0.6 -0.7
v 0 0.6 -0.8
v 0.1 0.6 -0.8
v 0.3 0.6 -0.8
v 0.5 0.6 -0.8
v 0.7 0.6 -0.8
v 0.8 0.6 -0.8

# faces
f 3/3/1 2/3/1 1/3/1
f 4/3/1 2/3/1 3/3/1
f 9/3/1 6/3/1 5/3/1
f 10/1/1 7/1/1 6/1/1
f 10/3/1 6/3/1 9/3/1
f 11/2/1 8/2/1 7/2/1
f 11/1/1 7/1/1 10/1/1
f 12/2/1 8/2/1 11/2/1
f 15/3/1 14/3/1 13/3/1
f 16/3/1 14/3/1 15/3/1
f 17/1/2 18/1/2 19/1/2
f 19/1/2 18/1/2 20/1/2
f 21/3/2 22/3/2 24/3/2
f 22/1/2 23/1/2 25/1/2
f 24/3/2 22/3/2 25/3/2
f 25/1/2 23/1/2 26/1/2
f 27/3/2 28/3/2 29/3/2
f 29/3/2 28/3/2 30/3/2
f 33/3/3 32/3/3 31/3/3
f 34/3/3 32/3/3 33/3/3
f 37/3/3 36/3/3 35/3/3
f 38/3/3 36/3/3 37/3/3
f 39/1/3 38/1/3 37/1/3
f 40/1/3 38/1/3 39/1/3
f 41/3/3 40/3/3 39/3/3
f 42/3/3 40/3/3 41/3/3
f 45/3/3 44/3/3 43/3/3
f 46/3/3 44/3/3 45/3/3
f 47/1/4 48/1/4 49/1/4
f 49/1/4 48/1/4 50/1/4
f 51/2/4 52/2/4 53/2/4
f 53/2/4 52/2/4 54/2/4
f 53/1/4 54/1/4 55/1/4
f 55/1/4 54/1/4 56/1/4
f 55/2/4 56/2/4 57/2/4
f 57/2/4 56/2/4 58/2/4
f 57/1/4 58/1/4 59/1/4
f 59/1/4 58/1/4 60/1/4
f 61/3/4 62/3/4 63/3/4
f 63/3/4 62/3/4 64/3/4
f 63/1/4 64/1/4 65/1/4
f 65/1/4 64/1/4 66/1/4
f 65/2/4 66/2/4 67/2/4
f 67/2/4 66/2/4 68/2/4
f 67/1/4 68/1/4 69/1/4
f 69/1/4 68/1/4 70/1/4
f 69/3/4 70/3/4 71/3/4
f 71/3/4 70/3/4 72/3/4
f 78/3/5 74/3/5 73/3/5
f 79/1/5 75/1/5 74/1/5
f 79/3/5 74/3/5 78/3/5
f 80/3/5 76/3/5 75/3/5
f 80/1/5 75/1/5 79/1/5
f 81/3/5 76/3/5 80/3/5
f 82/3/5 78/3/5 77/3/5
f 83/1/5 79/1/5 78/1/5
f 83/3/5 78/3/5 82/3/5
f 83/1/5 80/1/5 79/1/5
f 83/1/5 81/1/5 80/1/5
f 84/3/5 76/3/5 81/3/5
f 84/1/5 81/1/5 83/1/5
f 85/3/5 76/3/5 84/3/5
f 86/1/5 83/1/5 82/1/5
f 86/1/5 84/1/5 83/1/5
f 86/1/5 85/1/5 84/1/5
f 87/1/5 85/1/5 86/1/5
f 88/1/5 86/1/5 82/1/5
f 88/2/5 87/2/5 86/2/5
f 89/1/5 85/1/5 87/1/5
f 89/2/5 87/2/5 88/2/5
f 90/1/5 88/1/5 82/1/5
f 90/1/5 89/1/5 88/1/5
f 91/1/5 89/1/5 90/1/5
f 92/1/5 89/1/5 91/1/5
f 93/1/5 89/1/5 92/1/5
f 94/1/5 85/1/5 89/1/5
f 94/1/5 89/1/5 93/1/5
f 95/1/5 85/1/5 94/1/5
f 96/2/5 91/2/5 90/2/5
f 97/1/5 92/1/5 91/1/5
f 97/2/5 91/2/5 96/2/5
f 98/2/5 93/2/5 92/2/5
f 98/1/5 92/1/5 97/1/5
f 99/1/5 94/1/5 93/1/5
f 99/2/5 93/2/5 98/2/5
f 100/1/5 94/1/5 99/1/5
f 103/3/5 102/3/5 101/3/5
f 104/3/5 102/3/5 103/3/5
f 105/3/5 102/3/5 104/3/5
f 106/3/5 102/3/5 105/3/5
f 107/3/5 103/3/5 101/3/5
f 108/3/5 103/3/5 107/3/5
f 109/3/5 107/3/5 101/3/5
f 110/3/5 102/3/5 106/3/5
f 111/3/5 109/3/5 101/3/5
f 113/3/5 102/3/5 110/3/5
f 114/3/5 111/3/5 101/3/5
f 118/1/5 113/1/5 112/1/5
f 119/3/5 114/3/5 101/3/5
f 120/1/5 115/1/5 114/1/5
f 120/3/5 114/3/5 119/3/5
f 120/1/5 116/1/5 115/1/5
f 121/2/5 117/2/5 116/2/5
f 121/1/5 116/1/5 120/1/5
f 122/1/5 118/1/5 117/1/5
f 122/2/5 117/2/5 121/2/5
f 123/3/5 102/3/5 113/3/5
f 123/1/5 118/1/5 122/1/5
f 123/1/5 113/1/5 118/1/5
f 124/3/5 102/3/5 123/3/5
f 125/3/6 126/3/6 127/3/6
f 127/3/6 126/3/6 128/3/6
f 127/1/6 128/1/6 129/1/6
f 129/1/6 128/1/6 130/1/6
f 125/3/6 127/3/6 131/3/6
f 127/1/6 129/1/6 132/1/6
f 131/3/6 127/3/6 132/3/6
f 129/2/6 130/2/6 133/2/6
f 132/1/6 129/1/6 133/1/6
f 130/1/6 128/1/6 134/1/6
f 133/2/6 130/2/6 134/2/6
f 128/3/6 126/3/6 135/3/6
f 134/1/6 128/1/6 135/1/6
f 135/3/6 126/3/6 136/3/6
