# MagicaVoxel @ Ephtracy

# material
mtllib wall lamp.mtl
usemtl palette

# normals
vn -1 0 0
vn 1 0 0
vn 0 0 1
vn 0 0 -1
vn 0 -1 0
vn 0 1 0

# texcoords
vt 0.208984 0.5
vt 0.974609 0.5
vt 0.978516 0.5

# verts
v -6 0 1
v -6 0 -0
v -6 5 1
v -6 5 -0
v -6 6 1
v -6 6 -0
v -6 12 1
v -6 12 -0
v -1 5 2
v -1 5 1
v -1 6 2
v -1 6 1
v -1 7 2
v -1 7 1
v 0 5 2
v 0 5 1
v 0 6 2
v 0 6 1
v 0 7 2
v 0 7 1
v 6 0 1
v 6 0 -0
v 6 4 1
v 6 4 -0
v 6 5 1
v 6 5 -0
v 6 8 1
v 6 8 -0
v 6 9 1
v 6 9 -0
v 6 12 1
v 6 12 -0
v -1 5 2
v -1 6 2
v -1 7 2
v 0 5 2
v 0 6 2
v 0 7 2
v -6 0 1
v -6 5 1
v -6 6 1
v -6 12 1
v -5 1 1
v -5 2 1
v -5 4 1
v -5 5 1
v -5 6 1
v -5 9 1
v -5 10 1
v -5 11 1
v -5 12 1
v -4 4 1
v -4 5 1
v -4 6 1
v -4 8 1
v -4 9 1
v -4 10 1
v -4 11 1
v -4 12 1
v -3 1 1
v -3 2 1
v -3 3 1
v -3 4 1
v -3 5 1
v -3 6 1
v -3 8 1
v -3 9 1
v -3 10 1
v -3 11 1
v -2 2 1
v -2 3 1
v -2 7 1
v -2 8 1
v -1 0 1
v -1 1 1
v -1 3 1
v -1 4 1
v -1 5 1
v -1 6 1
v -1 7 1
v -1 8 1
v -1 10 1
v -1 11 1
v 0 0 1
v 0 1 1
v 0 3 1
v 0 4 1
v 0 5 1
v 0 6 1
v 0 7 1
v 1 2 1
v 1 3 1
v 1 9 1
v 1 10 1
v 2 2 1
v 2 3 1
v 2 4 1
v 2 5 1
v 2 6 1
v 2 7 1
v 2 9 1
v 2 10 1
v 2 11 1
v 3 3 1
v 3 4 1
v 3 5 1
v 3 6 1
v 3 10 1
v 3 11 1
v 4 1 1
v 4 2 1
v 4 3 1
v 4 4 1
v 4 5 1
v 4 6 1
v 4 9 1
v 4 10 1
v 5 1 1
v 5 2 1
v 5 3 1
v 5 4 1
v 5 5 1
v 5 6 1
v 5 8 1
v 5 9 1
v 5 10 1
v 6 0 1
v 6 4 1
v 6 5 1
v 6 8 1
v 6 9 1
v 6 12 1
v -6 0 -0
v -6 5 -0
v -6 6 -0
v -6 12 -0
v -5 1 -0
v -5 2 -0
v -5 4 -0
v -5 5 -0
v -5 6 -0
v -5 9 -0
v -5 10 -0
v -5 11 -0
v -5 12 -0
v -4 4 -0
v -4 5 -0
v -4 6 -0
v -4 8 -0
v -4 9 -0
v -4 10 -0
v -4 11 -0
v -4 12 -0
v -3 1 -0
v -3 2 -0
v -3 3 -0
v -3 4 -0
v -3 5 -0
v -3 6 -0
v -3 8 -0
v -3 9 -0
v -3 10 -0
v -3 11 -0
v -2 2 -0
v -2 3 -0
v -2 7 -0
v -2 8 -0
v -1 0 -0
v -1 1 -0
v -1 3 -0
v -1 4 -0
v -1 5 -0
v -1 7 -0
v -1 8 -0
v -1 10 -0
v -1 11 -0
v 0 0 -0
v 0 1 -0
v 0 3 -0
v 0 4 -0
v 0 6 -0
v 0 7 -0
v 1 2 -0
v 1 3 -0
v 1 9 -0
v 1 10 -0
v 2 2 -0
v 2 3 -0
v 2 4 -0
v 2 5 -0
v 2 6 -0
v 2 7 -0
v 2 9 -0
v 2 10 -0
v 2 11 -0
v 3 3 -0
v 3 4 -0
v 3 5 -0
v 3 6 -0
v 3 10 -0
v 3 11 -0
v 4 1 -0
v 4 2 -0
v 4 3 -0
v 4 4 -0
v 4 5 -0
v 4 6 -0
v 4 9 -0
v 4 10 -0
v 5 1 -0
v 5 2 -0
v 5 3 -0
v 5 4 -0
v 5 5 -0
v 5 6 -0
v 5 8 -0
v 5 9 -0
v 5 10 -0
v 6 0 -0
v 6 4 -0
v 6 5 -0
v 6 8 -0
v 6 9 -0
v 6 12 -0
v -6 0 1
v -1 0 1
v 0 0 1
v 6 0 1
v -6 0 -0
v -1 0 -0
v 0 0 -0
v 6 0 -0
v -1 5 2
v 0 5 2
v -1 5 1
v 0 5 1
v -1 7 2
v 0 7 2
v -1 7 1
v 0 7 1
v -6 12 1
v -5 12 1
v -4 12 1
v 6 12 1
v -6 12 -0
v -5 12 -0
v -4 12 -0
v 6 12 -0

# faces
f 3/2/1 2/2/1 1/2/1
f 4/2/1 2/2/1 3/2/1
f 5/3/1 4/3/1 3/3/1
f 6/3/1 4/3/1 5/3/1
f 7/2/1 6/2/1 5/2/1
f 8/2/1 6/2/1 7/2/1
f 11/2/1 10/2/1 9/2/1
f 12/2/1 10/2/1 11/2/1
f 13/1/1 12/1/1 11/1/1
f 14/1/1 12/1/1 13/1/1
f 15/2/2 16/2/2 17/2/2
f 17/2/2 16/2/2 18/2/2
f 17/1/2 18/1/2 19/1/2
f 19/1/2 18/1/2 20/1/2
f 21/2/2 22/2/2 23/2/2
f 23/2/2 22/2/2 24/2/2
f 23/3/2 24/3/2 25/3/2
f 25/3/2 24/3/2 26/3/2
f 25/2/2 26/2/2 27/2/2
f 27/2/2 26/2/2 28/2/2
f 27/3/2 28/3/2 29/3/2
f 29/3/2 28/3/2 30/3/2
f 29/2/2 30/2/2 31/2/2
f 31/2/2 30/2/2 32/2/2
f 36/2/3 34/2/3 33/2/3
f 37/1/3 35/1/3 34/1/3
f 37/2/3 34/2/3 36/2/3
f 38/1/3 35/1/3 37/1/3
f 43/2/3 40/2/3 39/2/3
f 44/2/3 40/2/3 43/2/3
f 45/2/3 40/2/3 44/2/3
f 46/3/3 41/3/3 40/3/3
f 46/2/3 40/2/3 45/2/3
f 47/2/3 42/2/3 41/2/3
f 47/3/3 41/3/3 46/3/3
f 48/2/3 42/2/3 47/2/3
f 49/2/3 42/2/3 48/2/3
f 50/2/3 42/2/3 49/2/3
f 51/2/3 42/2/3 50/2/3
f 52/3/3 46/3/3 45/3/3
f 52/2/3 45/2/3 44/2/3
f 53/2/3 47/2/3 46/2/3
f 53/3/3 46/3/3 52/3/3
f 53/2/3 48/2/3 47/2/3
f 54/2/3 48/2/3 53/2/3
f 55/2/3 48/2/3 54/2/3
f 56/3/3 49/3/3 48/3/3
f 56/2/3 48/2/3 55/2/3
f 57/2/3 50/2/3 49/2/3
f 57/3/3 49/3/3 56/3/3
f 58/3/3 51/3/3 50/3/3
f 58/2/3 50/2/3 57/2/3
f 59/3/3 51/3/3 58/3/3
f 60/2/3 43/2/3 39/2/3
f 60/3/3 44/3/3 43/3/3
f 61/2/3 52/2/3 44/2/3
f 61/3/3 44/3/3 60/3/3
f 61/2/3 53/2/3 52/2/3
f 62/2/3 53/2/3 61/2/3
f 63/2/3 53/2/3 62/2/3
f 64/3/3 54/3/3 53/3/3
f 64/2/3 53/2/3 63/2/3
f 65/2/3 55/2/3 54/2/3
f 65/3/3 54/3/3 64/3/3
f 66/3/3 56/3/3 55/3/3
f 66/2/3 55/2/3 65/2/3
f 67/2/3 57/2/3 56/2/3
f 67/3/3 56/3/3 66/3/3
f 67/2/3 59/2/3 58/2/3
f 67/2/3 58/2/3 57/2/3
f 68/2/3 59/2/3 67/2/3
f 69/2/3 59/2/3 68/2/3
f 70/3/3 62/3/3 61/3/3
f 70/2/3 61/2/3 60/2/3
f 71/2/3 63/2/3 62/2/3
f 71/3/3 62/3/3 70/3/3
f 72/2/3 66/2/3 65/2/3
f 72/2/3 65/2/3 64/2/3
f 72/2/3 67/2/3 66/2/3
f 72/2/3 68/2/3 67/2/3
f 73/2/3 68/2/3 72/2/3
f 74/2/3 60/2/3 39/2/3
f 74/2/3 71/2/3 70/2/3
f 74/2/3 70/2/3 60/2/3
f 75/2/3 71/2/3 74/2/3
f 76/2/3 63/2/3 71/2/3
f 76/2/3 71/2/3 75/2/3
f 77/3/3 64/3/3 63/3/3
f 77/2/3 63/2/3 76/2/3
f 78/2/3 72/2/3 64/2/3
f 78/3/3 64/3/3 77/3/3
f 79/2/3 72/2/3 78/2/3
f 80/3/3 73/3/3 72/3/3
f 80/2/3 72/2/3 79/2/3
f 81/2/3 68/2/3 73/2/3
f 81/3/3 73/3/3 80/3/3
f 82/3/3 69/3/3 68/3/3
f 82/2/3 68/2/3 81/2/3
f 83/2/3 59/2/3 69/2/3
f 83/3/3 69/3/3 82/3/3
f 84/3/3 75/3/3 74/3/3
f 85/2/3 76/2/3 75/2/3
f 85/3/3 75/3/3 84/3/3
f 86/3/3 77/3/3 76/3/3
f 86/2/3 76/2/3 85/2/3
f 87/2/3 78/2/3 77/2/3
f 87/3/3 77/3/3 86/3/3
f 88/2/3 78/2/3 87/2/3
f 90/2/3 82/2/3 81/2/3
f 90/2/3 83/2/3 82/2/3
f 90/2/3 81/2/3 80/2/3
f 91/2/3 89/2/3 88/2/3
f 91/2/3 88/2/3 87/2/3
f 91/2/3 86/2/3 85/2/3
f 91/2/3 87/2/3 86/2/3
f 91/2/3 85/2/3 84/2/3
f 92/2/3 89/2/3 91/2/3
f 93/2/3 83/2/3 90/2/3
f 94/2/3 83/2/3 93/2/3
f 95/2/3 91/2/3 84/2/3
f 95/3/3 92/3/3 91/3/3
f 96/2/3 89/2/3 92/2/3
f 96/3/3 92/3/3 95/3/3
f 97/2/3 89/2/3 96/2/3
f 98/2/3 89/2/3 97/2/3
f 99/3/3 90/3/3 89/3/3
f 99/2/3 89/2/3 98/2/3
f 100/2/3 93/2/3 90/2/3
f 100/3/3 90/3/3 99/3/3
f 101/3/3 94/3/3 93/3/3
f 101/2/3 93/2/3 100/2/3
f 102/2/3 83/2/3 94/2/3
f 102/3/3 94/3/3 101/3/3
f 103/2/3 59/2/3 83/2/3
f 103/2/3 83/2/3 102/2/3
f 104/2/3 96/2/3 95/2/3
f 104/3/3 97/3/3 96/3/3
f 105/2/3 98/2/3 97/2/3
f 105/3/3 97/3/3 104/3/3
f 106/3/3 99/3/3 98/3/3
f 106/2/3 98/2/3 105/2/3
f 107/2/3 102/2/3 101/2/3
f 107/3/3 99/3/3 106/3/3
f 107/2/3 101/2/3 100/2/3
f 107/2/3 100/2/3 99/2/3
f 108/3/3 103/3/3 102/3/3
f 108/2/3 102/2/3 107/2/3
f 109/2/3 59/2/3 103/2/3
f 109/3/3 103/3/3 108/3/3
f 110/2/3 106/2/3 105/2/3
f 110/2/3 104/2/3 95/2/3
f 110/2/3 109/2/3 108/2/3
f 110/2/3 105/2/3 104/2/3
f 110/2/3 108/2/3 107/2/3
f 110/2/3 107/2/3 106/2/3
f 110/2/3 95/2/3 84/2/3
f 111/2/3 109/2/3 110/2/3
f 112/2/3 109/2/3 111/2/3
f 113/2/3 109/2/3 112/2/3
f 114/2/3 109/2/3 113/2/3
f 115/2/3 109/2/3 114/2/3
f 116/2/3 109/2/3 115/2/3
f 117/2/3 109/2/3 116/2/3
f 118/2/3 110/2/3 84/2/3
f 118/3/3 111/3/3 110/3/3
f 119/2/3 112/2/3 111/2/3
f 119/3/3 111/3/3 118/3/3
f 120/3/3 113/3/3 112/3/3
f 120/2/3 112/2/3 119/2/3
f 121/2/3 114/2/3 113/2/3
f 121/3/3 113/3/3 120/3/3
f 122/3/3 115/3/3 114/3/3
f 122/2/3 114/2/3 121/2/3
f 123/2/3 116/2/3 115/2/3
f 123/3/3 115/3/3 122/3/3
f 124/2/3 116/2/3 123/2/3
f 125/3/3 117/3/3 116/3/3
f 125/2/3 116/2/3 124/2/3
f 126/2/3 109/2/3 117/2/3
f 126/3/3 117/3/3 125/3/3
f 127/2/3 118/2/3 84/2/3
f 127/2/3 119/2/3 118/2/3
f 127/2/3 120/2/3 119/2/3
f 127/2/3 121/2/3 120/2/3
f 128/3/3 122/3/3 121/3/3
f 128/2/3 121/2/3 127/2/3
f 129/2/3 124/2/3 123/2/3
f 129/3/3 122/3/3 128/3/3
f 129/2/3 123/2/3 122/2/3
f 130/3/3 125/3/3 124/3/3
f 130/2/3 124/2/3 129/2/3
f 131/2/3 126/2/3 125/2/3
f 131/3/3 125/3/3 130/3/3
f 132/2/3 59/2/3 109/2/3
f 132/2/3 126/2/3 131/2/3
f 132/2/3 109/2/3 126/2/3
f 133/2/4 134/2/4 137/2/4
f 137/2/4 134/2/4 138/2/4
f 138/2/4 134/2/4 139/2/4
f 134/3/4 135/3/4 140/3/4
f 139/2/4 134/2/4 140/2/4
f 135/2/4 136/2/4 141/2/4
f 140/3/4 135/3/4 141/3/4
f 141/2/4 136/2/4 142/2/4
f 142/2/4 136/2/4 143/2/4
f 143/2/4 136/2/4 144/2/4
f 144/2/4 136/2/4 145/2/4
f 139/3/4 140/3/4 146/3/4
f 138/2/4 139/2/4 146/2/4
f 140/2/4 141/2/4 147/2/4
f 146/3/4 140/3/4 147/3/4
f 141/2/4 142/2/4 147/2/4
f 147/2/4 142/2/4 148/2/4
f 148/2/4 142/2/4 149/2/4
f 142/3/4 143/3/4 150/3/4
f 149/2/4 142/2/4 150/2/4
f 143/2/4 144/2/4 151/2/4
f 150/3/4 143/3/4 151/3/4
f 144/3/4 145/3/4 152/3/4
f 151/2/4 144/2/4 152/2/4
f 152/3/4 145/3/4 153/3/4
f 133/2/4 137/2/4 154/2/4
f 137/3/4 138/3/4 154/3/4
f 138/2/4 146/2/4 155/2/4
f 154/3/4 138/3/4 155/3/4
f 146/2/4 147/2/4 155/2/4
f 155/2/4 147/2/4 156/2/4
f 156/2/4 147/2/4 157/2/4
f 147/3/4 148/3/4 158/3/4
f 157/2/4 147/2/4 158/2/4
f 148/2/4 149/2/4 159/2/4
f 158/3/4 148/3/4 159/3/4
f 149/3/4 150/3/4 160/3/4
f 159/2/4 149/2/4 160/2/4
f 150/2/4 151/2/4 161/2/4
f 160/3/4 150/3/4 161/3/4
f 152/2/4 153/2/4 161/2/4
f 151/2/4 152/2/4 161/2/4
f 161/2/4 153/2/4 162/2/4
f 162/2/4 153/2/4 163/2/4
f 155/3/4 156/3/4 164/3/4
f 154/2/4 155/2/4 164/2/4
f 156/2/4 157/2/4 165/2/4
f 164/3/4 156/3/4 165/3/4
f 159/2/4 160/2/4 166/2/4
f 158/2/4 159/2/4 166/2/4
f 160/2/4 161/2/4 166/2/4
f 161/2/4 162/2/4 166/2/4
f 166/2/4 162/2/4 167/2/4
f 133/2/4 154/2/4 168/2/4
f 164/2/4 165/2/4 168/2/4
f 154/2/4 164/2/4 168/2/4
f 168/2/4 165/2/4 169/2/4
f 165/2/4 157/2/4 170/2/4
f 169/2/4 165/2/4 170/2/4
f 157/3/4 158/3/4 171/3/4
f 170/2/4 157/2/4 171/2/4
f 158/2/4 166/2/4 172/2/4
f 171/3/4 158/3/4 172/3/4
f 166/3/4 167/3/4 173/3/4
f 172/2/4 166/2/4 173/2/4
f 167/2/4 162/2/4 174/2/4
f 173/3/4 167/3/4 174/3/4
f 162/3/4 163/3/4 175/3/4
f 174/2/4 162/2/4 175/2/4
f 163/2/4 153/2/4 176/2/4
f 175/3/4 163/3/4 176/3/4
f 168/3/4 169/3/4 177/3/4
f 169/2/4 170/2/4 178/2/4
f 177/3/4 169/3/4 178/3/4
f 170/3/4 171/3/4 179/3/4
f 178/2/4 170/2/4 179/2/4
f 174/2/4 175/2/4 180/2/4
f 179/3/4 171/3/4 180/3/4
f 172/2/4 173/2/4 180/2/4
f 175/2/4 176/2/4 180/2/4
f 171/2/4 172/2/4 180/2/4
f 173/2/4 174/2/4 180/2/4
f 180/2/4 176/2/4 181/2/4
f 181/2/4 176/2/4 182/2/4
f 178/2/4 179/2/4 183/2/4
f 177/2/4 178/2/4 183/2/4
f 179/2/4 180/2/4 183/2/4
f 180/2/4 181/2/4 183/2/4
f 183/2/4 181/2/4 184/2/4
f 182/2/4 176/2/4 185/2/4
f 185/2/4 176/2/4 186/2/4
f 177/2/4 183/2/4 187/2/4
f 183/3/4 184/3/4 187/3/4
f 184/2/4 181/2/4 188/2/4
f 187/3/4 184/3/4 188/3/4
f 188/2/4 181/2/4 189/2/4
f 189/2/4 181/2/4 190/2/4
f 181/3/4 182/3/4 191/3/4
f 190/2/4 181/2/4 191/2/4
f 182/2/4 185/2/4 192/2/4
f 191/3/4 182/3/4 192/3/4
f 185/3/4 186/3/4 193/3/4
f 192/2/4 185/2/4 193/2/4
f 186/2/4 176/2/4 194/2/4
f 193/3/4 186/3/4 194/3/4
f 176/2/4 153/2/4 195/2/4
f 194/2/4 176/2/4 195/2/4
f 187/2/4 188/2/4 196/2/4
f 188/3/4 189/3/4 196/3/4
f 189/2/4 190/2/4 197/2/4
f 196/3/4 189/3/4 197/3/4
f 190/3/4 191/3/4 198/3/4
f 197/2/4 190/2/4 198/2/4
f 193/2/4 194/2/4 199/2/4
f 198/3/4 191/3/4 199/3/4
f 192/2/4 193/2/4 199/2/4
f 191/2/4 192/2/4 199/2/4
f 194/3/4 195/3/4 200/3/4
f 199/2/4 194/2/4 200/2/4
f 195/2/4 153/2/4 201/2/4
f 200/3/4 195/3/4 201/3/4
f 197/2/4 198/2/4 202/2/4
f 177/2/4 187/2/4 202/2/4
f 200/2/4 201/2/4 202/2/4
f 196/2/4 197/2/4 202/2/4
f 199/2/4 200/2/4 202/2/4
f 198/2/4 199/2/4 202/2/4
f 187/2/4 196/2/4 202/2/4
f 202/2/4 201/2/4 203/2/4
f 203/2/4 201/2/4 204/2/4
f 204/2/4 201/2/4 205/2/4
f 205/2/4 201/2/4 206/2/4
f 206/2/4 201/2/4 207/2/4
f 207/2/4 201/2/4 208/2/4
f 208/2/4 201/2/4 209/2/4
f 177/2/4 202/2/4 210/2/4
f 202/3/4 203/3/4 210/3/4
f 203/2/4 204/2/4 211/2/4
f 210/3/4 203/3/4 211/3/4
f 204/3/4 205/3/4 212/3/4
f 211/2/4 204/2/4 212/2/4
f 205/2/4 206/2/4 213/2/4
f 212/3/4 205/3/4 213/3/4
f 206/3/4 207/3/4 214/3/4
f 213/2/4 206/2/4 214/2/4
f 207/2/4 208/2/4 215/2/4
f 214/3/4 207/3/4 215/3/4
f 215/2/4 208/2/4 216/2/4
f 208/3/4 209/3/4 217/3/4
f 216/2/4 208/2/4 217/2/4
f 209/2/4 201/2/4 218/2/4
f 217/3/4 209/3/4 218/3/4
f 177/2/4 210/2/4 219/2/4
f 210/2/4 211/2/4 219/2/4
f 211/2/4 212/2/4 219/2/4
f 212/2/4 213/2/4 219/2/4
f 213/3/4 214/3/4 220/3/4
f 219/2/4 213/2/4 220/2/4
f 215/2/4 216/2/4 221/2/4
f 220/3/4 214/3/4 221/3/4
f 214/2/4 215/2/4 221/2/4
f 216/3/4 217/3/4 222/3/4
f 221/2/4 216/2/4 222/2/4
f 217/2/4 218/2/4 223/2/4
f 222/3/4 217/3/4 223/3/4
f 201/2/4 153/2/4 224/2/4
f 223/2/4 218/2/4 224/2/4
f 218/2/4 201/2/4 224/2/4
f 229/2/5 226/2/5 225/2/5
f 230/3/5 227/3/5 226/3/5
f 230/2/5 226/2/5 229/2/5
f 231/2/5 228/2/5 227/2/5
f 231/3/5 227/3/5 230/3/5
f 232/2/5 228/2/5 231/2/5
f 235/2/5 234/2/5 233/2/5
f 236/2/5 234/2/5 235/2/5
f 237/1/6 238/1/6 239/1/6
f 239/1/6 238/1/6 240/1/6
f 241/2/6 242/2/6 245/2/6
f 242/3/6 243/3/6 246/3/6
f 245/2/6 242/2/6 246/2/6
f 243/2/6 244/2/6 247/2/6
f 246/3/6 243/3/6 247/3/6
f 247/2/6 244/2/6 248/2/6
